<svg width="57" height="57" viewBox="0 0 57 57" fill="none" xmlns="http://www.w3.org/2000/svg">
<g id="104493_linkedin_icon 1" clip-path="url(#clip0_114_40)">
<rect id="Rectangle 2" width="57" height="57" rx="5" fill="#F5F8FA"/>
<g id="Group">
<path id="Vector" d="M30.071 27.101V27.024C30.055 27.05 30.038 27.076 30.021 27.101H30.071Z" fill="black"/>
<path id="Vector_2" d="M49.7975 4.667H7.18748C5.14802 4.667 3.494 6.27141 3.494 8.24877V51.0862C3.494 53.0626 5.14802 54.667 7.18748 54.667H49.7975C51.84 54.667 53.494 53.0616 53.494 51.0862V8.24877C53.494 6.2704 51.839 4.667 49.7975 4.667ZM18.6493 46.5233H11.0974V23.946H18.6493V46.5233ZM14.8739 20.8619H14.8233C12.2902 20.8619 10.6513 19.1278 10.6513 16.9614C10.6513 14.7468 12.3407 13.061 14.9234 13.061C17.5072 13.061 19.0964 14.7468 19.147 16.9614C19.147 19.1278 17.5061 20.8619 14.8739 20.8619ZM45.8815 46.5233H38.3296V34.442C38.3296 31.4081 37.237 29.3373 34.5046 29.3373C32.4186 29.3373 31.1763 30.7336 30.6291 32.0827C30.4298 32.5642 30.3812 33.2377 30.3812 33.9132V46.5223H22.8294C22.8294 46.5223 22.9285 26.0611 22.8294 23.945H30.3812V27.1408C31.3847 25.6027 33.1794 23.4122 37.1885 23.4122C42.1566 23.4122 45.8825 26.6401 45.8825 33.5755V46.5233H45.8815Z" fill="black"/>
</g>
</g>
<defs>
<clipPath id="clip0_114_40">
<rect width="56.693" height="56.693" fill="white"/>
</clipPath>
</defs>
</svg>
