<svg width="58" height="57" viewBox="0 0 58 57" fill="none" xmlns="http://www.w3.org/2000/svg">
<g clip-path="url(#clip0_114_59)">
<rect y="-1" width="57" height="57" rx="5" fill="#F5F8FA"/>
<path d="M53.8649 14.5953L53.866 14.5942L53.8649 14.595V13.411C53.8649 11.1642 52.0265 9.3258 49.7796 9.3258L49.7784 9.3269L49.776 9.3287L49.7796 9.3258H8.08921L8.10531 9.3389L8.08921 9.3269C5.84241 9.3269 4.00391 11.1653 4.00391 13.4122V41.3195C4.00391 43.5663 5.84231 45.4046 8.08921 45.4046H9.54351H48.2013V45.4036C52.4869 45.3538 53.7741 44.2934 53.8715 41.3227L53.8649 14.5953ZM46.7359 10.3258L28.8683 23.487L11.1169 10.3258H46.7359ZM10.5538 20.5521L27.1046 31.9525L27.1212 31.964L10.5443 43.4907L10.5538 20.5521ZM10.9816 44.4046L27.9967 32.5732L28.2952 32.7809C28.4668 32.9003 28.6666 32.9601 28.8664 32.9601C29.0646 32.9601 29.7437 32.5701 29.7437 32.5701L46.7634 44.4046H10.9816ZM47.1903 43.4836L30.6235 31.9641L39.8629 25.5999L47.1903 20.5527V43.4836Z" fill="black"/>
</g>
<defs>
<clipPath id="clip0_114_59">
<rect width="56.7" height="56.7" fill="white" transform="translate(0.692993)"/>
</clipPath>
</defs>
</svg>
