<svg width="58" height="58" viewBox="0 0 58 58" fill="none" xmlns="http://www.w3.org/2000/svg">
<path fill-rule="evenodd" clip-rule="evenodd" d="M28.7332 5.91925C15.1322 5.91925 4.10321 16.9459 4.10321 30.5491C4.10321 41.4312 11.1605 50.6636 20.9467 53.9205C22.1775 54.1484 22.6296 53.3859 22.6296 52.7355C22.6296 52.1485 22.607 50.2079 22.5963 48.1498C15.7442 49.6399 14.2983 45.2438 14.2983 45.2438C13.1778 42.3971 11.5637 41.64 11.5637 41.64C9.32876 40.1113 11.7321 40.1428 11.7321 40.1428C14.2051 40.3165 15.5076 42.6813 15.5076 42.6813C17.7043 46.4464 21.2694 45.3578 22.6751 44.7285C22.8962 43.1368 23.5342 42.0499 24.2388 41.4349C18.7681 40.8123 13.017 38.7001 13.017 29.2626C13.017 26.5738 13.9793 24.3766 15.555 22.6517C15.2993 22.0311 14.4561 19.5262 15.7936 16.1334C15.7936 16.1334 17.862 15.4718 22.5683 18.6584C24.5331 18.1126 26.6402 17.8389 28.7333 17.8294C30.8263 17.8389 32.935 18.1126 34.9033 18.6584C39.6045 15.4718 41.6699 16.1334 41.6699 16.1334C43.0105 19.5262 42.1673 22.0311 41.9116 22.6517C43.4909 24.3766 44.4464 26.5737 44.4464 29.2626C44.4464 38.7228 38.6845 40.8054 33.1998 41.4153C34.0832 42.1797 34.8702 43.6786 34.8702 45.9764C34.8702 49.2719 34.842 51.9242 34.842 52.7355C34.842 53.3911 35.2852 54.1592 36.5335 53.9174C46.3147 50.6569 53.3631 41.4277 53.3631 30.5491C53.3631 16.9459 42.3356 5.91925 28.7332 5.91925Z" fill="#1A1B1D"/>
<path d="M13.4319 41.2822C13.3777 41.4049 13.185 41.4416 13.0097 41.3576C12.8309 41.2772 12.7309 41.1103 12.7886 40.9876C12.8416 40.8616 13.0343 40.8266 13.2128 40.9107C13.3917 40.9912 13.4937 41.1595 13.4319 41.2822Z" fill="#1A1B1D"/>
<path d="M14.4297 42.3952C14.3123 42.5038 14.0823 42.4533 13.9265 42.2813C13.7652 42.1095 13.7354 41.8797 13.8546 41.7695C13.9757 41.6607 14.1984 41.7115 14.3596 41.8833C14.521 42.057 14.5524 42.2849 14.4297 42.3952Z" fill="#1A1B1D"/>
<path d="M15.4008 43.8136C15.2498 43.9187 15.0029 43.8202 14.8503 43.6012C14.6993 43.3821 14.6993 43.1193 14.8538 43.014C15.0064 42.9089 15.2499 43.0036 15.4044 43.2208C15.555 43.4436 15.5549 43.7065 15.4008 43.8136Z" fill="#1A1B1D"/>
<path d="M16.7311 45.1841C16.596 45.333 16.3084 45.2927 16.0982 45.0896C15.8827 44.8912 15.8229 44.6094 15.9579 44.4604C16.095 44.3114 16.3842 44.3531 16.596 44.5547C16.8099 44.753 16.8748 45.0366 16.7311 45.1841Z" fill="#1A1B1D"/>
<path d="M18.5665 45.9799C18.5068 46.1726 18.23 46.2602 17.9511 46.1782C17.6723 46.0937 17.4904 45.8679 17.5465 45.6731C17.6042 45.4788 17.8825 45.3876 18.1633 45.4752C18.4418 45.5592 18.6242 45.7835 18.5665 45.9799Z" fill="#1A1B1D"/>
<path d="M20.5823 46.1273C20.589 46.3304 20.3525 46.4989 20.0598 46.5025C19.7654 46.5092 19.5267 46.3449 19.5236 46.1449C19.5236 45.9397 19.7549 45.7731 20.0494 45.768C20.3421 45.7624 20.5823 45.9257 20.5823 46.1273Z" fill="#1A1B1D"/>
<path d="M22.458 45.8082C22.493 46.0062 22.2893 46.2097 21.9985 46.2639C21.7126 46.3165 21.4482 46.1938 21.4116 45.9974C21.3762 45.7943 21.5832 45.5908 21.8689 45.5382C22.1601 45.4876 22.4209 45.6066 22.458 45.8082Z" fill="#1A1B1D"/>
</svg>
