<svg width="58" height="58" viewBox="0 0 58 58" fill="none" xmlns="http://www.w3.org/2000/svg">
<path fill-rule="evenodd" clip-rule="evenodd" d="M47.0802 11.4138C42.429 6.75732 36.2437 4.19182 29.6536 4.18912C16.0751 4.18912 5.02361 15.2397 5.01831 28.8224C5.01641 33.1644 6.15081 37.4024 8.30671 41.1383L4.81171 53.904L17.8712 50.4783C21.4694 52.4409 25.5207 53.4754 29.6438 53.4768H29.6538C29.6546 53.4768 29.6532 53.4768 29.654 53.4768C43.2311 53.4768 54.2833 42.4251 54.289 28.8421C54.2914 22.2595 51.7313 16.0701 47.0802 11.4138ZM29.6537 49.3163H29.6454C25.9714 49.3149 22.3677 48.3277 19.2239 46.4622L18.4763 46.0185L10.7266 48.0513L12.7952 40.4955L12.3083 39.7207C10.2587 36.4607 9.17621 32.6927 9.17781 28.8238C9.18221 17.5344 18.3678 8.34982 29.662 8.34982C35.131 8.35152 40.2721 10.4842 44.138 14.3545C48.0038 18.2248 50.1316 23.3693 50.1294 28.8404C50.1248 40.1307 40.9395 49.3163 29.6537 49.3163Z" fill="#1A1B1D"/>
<path fill-rule="evenodd" clip-rule="evenodd" d="M40.8851 33.981C40.2696 33.6729 37.2432 32.184 36.679 31.9784C36.1148 31.773 35.7044 31.6703 35.2941 32.2865C34.8838 32.9026 33.7041 34.2892 33.345 34.7001C32.986 35.1107 32.6268 35.1624 32.0114 34.854C31.3959 34.5459 29.4125 33.896 27.0614 31.7989C25.2314 30.1666 23.9961 28.151 23.6369 27.5346C23.2779 26.9185 23.5987 26.5854 23.9069 26.2784C24.1838 26.0025 24.5225 25.5595 24.8303 25.2C25.138 24.8407 25.2406 24.5837 25.4458 24.1732C25.651 23.7623 25.5485 23.4028 25.3945 23.0948C25.2406 22.7867 24.0096 19.7569 23.4967 18.5242C22.9969 17.3241 22.4895 17.4867 22.1116 17.4676C21.7531 17.4497 21.3422 17.446 20.9319 17.446C20.5216 17.446 19.8546 17.6001 19.2905 18.2162C18.7263 18.8325 17.136 20.3218 17.136 23.3513C17.136 26.3812 19.3417 29.3082 19.6495 29.7189C19.9572 30.1299 23.99 36.3471 30.1648 39.0134C31.6334 39.6477 32.78 40.0264 33.6739 40.31C35.1485 40.7786 36.4904 40.7124 37.551 40.5539C38.7337 40.3772 41.1929 39.0649 41.7058 37.6272C42.2188 36.1892 42.2188 34.9566 42.0648 34.7C41.911 34.4433 41.5006 34.2892 40.8851 33.981Z" fill="#1A1B1D"/>
</svg>
