<svg width="25" height="25" viewBox="0 0 25 25" fill="none" xmlns="http://www.w3.org/2000/svg">
<path d="M21.3623 18.877L14.9854 12.5L21.3623 6.12305C22.0508 5.43457 22.0508 4.32617 21.3623 3.6377C20.6738 2.94922 19.5654 2.94922 18.877 3.6377L12.5 10.0146L6.12305 3.6377C5.43457 2.94922 4.32617 2.94922 3.6377 3.6377C2.94922 4.32617 2.94922 5.43457 3.6377 6.12305L10.0146 12.5L3.6377 18.877C2.94922 19.5654 2.94922 20.6738 3.6377 21.3623C4.32617 22.0508 5.43457 22.0508 6.12305 21.3623L12.5 14.9854L18.877 21.3623C19.5654 22.0508 20.6738 22.0508 21.3623 21.3623C22.0459 20.6738 22.0459 19.5605 21.3623 18.877Z" fill="black"/>
</svg>
